<svg width="11" height="12" viewBox="0 0 11 12" fill="none" xmlns="http://www.w3.org/2000/svg">
<path d="M2.235 0.192004C2.00672 0.0636847 1.74882 -0.00263379 1.48695 -0.000355191C1.22508 0.00192341 0.968374 0.0727198 0.742357 0.204992C0.516341 0.337265 0.328892 0.526405 0.198654 0.7536C0.0684162 0.980795 -7.26363e-05 1.23813 5.78078e-08 1.5V10.5C0.00010191 10.7618 0.0687177 11.019 0.199027 11.2461C0.329337 11.4731 0.516801 11.6621 0.742789 11.7943C0.968776 11.9264 1.22542 11.9971 1.4872 11.9994C1.74898 12.0016 2.00679 11.9353 2.235 11.807L10.235 7.307C10.4668 7.17647 10.6597 6.98663 10.794 6.75695C10.9282 6.52728 10.999 6.26604 10.999 6C10.999 5.73397 10.9282 5.47273 10.794 5.24306C10.6597 5.01338 10.4668 4.82354 10.235 4.693L2.235 0.193005V0.192004Z" fill="#010F1C"/>
</svg>
