<svg width="43" height="43" viewBox="0 0 43 43" fill="none" xmlns="http://www.w3.org/2000/svg">
<path d="M28.8278 41.2793C18.0154 45.2147 6.06079 39.6401 2.12542 28.8278C-1.80995 18.0154 3.76459 6.0608 14.5769 2.12544C25.3893 -1.80993 37.3439 3.76461 41.2793 14.5769C45.2146 25.3893 39.6401 37.3439 28.8278 41.2793ZM27.4027 37.3639C31.5564 35.8521 34.9394 32.7521 36.8075 28.746C38.6756 24.7399 38.8757 20.1557 37.3639 16.002C35.8521 11.8483 32.7521 8.46533 28.746 6.59724C24.7399 4.72915 20.1557 4.529 16.002 6.04082C11.8483 7.55264 8.46531 10.6526 6.59722 14.6587C4.72913 18.6649 4.52898 23.249 6.04081 27.4027C7.55263 31.5564 10.6526 34.9394 14.6587 36.8075C18.6648 38.6756 23.249 38.8757 27.4027 37.3639ZM23.66 20.9898L31.4908 18.1397L32.9159 22.055L21.1697 26.3303L16.1819 12.6264L20.0973 11.2014L23.66 20.9898Z" fill="white"/>
</svg>
